PathFileType	4	(X/Y/Z)	 New Session 105.trc
DataRate	CameraRate	NumFrames	NumMarkers	Units	OrigDataRate	OrigDataStartFrame	OrigNumFrames
100	100	30	14	m	100	356	711
Frame#	Time	C7			T8			IJ			PX			AA			AC			AI			TS			SC			GH			LE			ME			US			RS			
		X1	Y1	Z1	X2	Y2	Z2	X3	Y3	Z3	X4	Y4	Z4	X5	Y5	Z5	X6	Y6	Z6	X7	Y7	Z7	X8	Y8	Z8	X9	Y9	Z9	X10	Y10	Z10	X11	Y11	Z11	X12	Y12	Z12	X13	Y13	Z13	X14	Y14	Z14	
356	3.5600	0.002736	0.099466	0.164858	0.020979	-0.118597	0.225805	0.007996	0.002595	-0.004096	0.023258	-0.138007	-0.071975	0.176720	0.044863	0.187543	0.129368	0.094198	0.117295	0.078796	0.024602	0.216222	0.100443	-0.092652	0.224135	0.031052	0.015106	0.001563	0.172161	0.080618	0.164834	0.433572	0.063846	0.165351	0.459272	0.027251	0.081478	0.587390	0.288805	0.075169	0.514660	0.314506	0.087141	
357	3.5700	0.002486	0.099334	0.164833	0.020602	-0.118793	0.225617	0.008129	0.002667	-0.004161	0.023340	-0.137900	-0.072110	0.176281	0.044455	0.188007	0.129116	0.094204	0.117954	0.078329	0.024272	0.216306	0.100048	-0.092832	0.224009	0.031130	0.015135	0.001633	0.171858	0.080331	0.165524	0.433338	0.062645	0.167283	0.459107	0.027344	0.082941	0.588606	0.288309	0.080661	0.516191	0.314252	0.093547	
358	3.5800	0.002256	0.099205	0.164812	0.020223	-0.118990	0.225433	0.008278	0.002736	-0.004246	0.023385	-0.137805	-0.072232	0.175839	0.044018	0.188483	0.128887	0.094217	0.118604	0.077878	0.023936	0.216386	0.099633	-0.093026	0.223890	0.031202	0.015125	0.001629	0.171520	0.080040	0.166215	0.433072	0.061518	0.169252	0.459094	0.027370	0.084538	0.589793	0.287679	0.085802	0.517724	0.313841	0.099585	
359	3.5900	0.002033	0.099072	0.164792	0.019847	-0.119181	0.225258	0.008426	0.002798	-0.004320	0.023407	-0.137715	-0.072345	0.175399	0.043571	0.188949	0.128692	0.094188	0.119066	0.077448	0.023591	0.216459	0.099214	-0.093236	0.223782	0.031262	0.015106	0.001570	0.171157	0.079746	0.166907	0.432761	0.060477	0.171252	0.459165	0.027291	0.086301	0.590985	0.286918	0.090628	0.519244	0.313297	0.105225	
360	3.6000	0.001802	0.098928	0.164777	0.019475	-0.119363	0.225096	0.008558	0.002860	-0.004366	0.023419	-0.137626	-0.072451	0.174960	0.043148	0.189397	0.128520	0.094108	0.119316	0.077032	0.023240	0.216526	0.098809	-0.093462	0.223690	0.031315	0.015100	0.001504	0.170791	0.079453	0.167589	0.432395	0.059525	0.173271	0.459232	0.027084	0.088253	0.592178	0.286014	0.095177	0.520711	0.312640	0.110435	
361	3.6100	0.001552	0.098783	0.164770	0.019105	-0.119532	0.224945	0.008658	0.002931	-0.004385	0.023428	-0.137534	-0.072551	0.174520	0.042757	0.189836	0.128315	0.094030	0.119618	0.076618	0.022890	0.216591	0.098421	-0.093696	0.223613	0.031364	0.015115	0.001462	0.170417	0.079166	0.168249	0.431977	0.058655	0.175296	0.459265	0.026757	0.090333	0.593338	0.284974	0.099482	0.522099	0.311882	0.115201	
362	3.6200	0.001276	0.098659	0.164780	0.018737	-0.119692	0.224800	0.008718	0.003014	-0.004385	0.023435	-0.137440	-0.072645	0.174070	0.042399	0.190272	0.128059	0.093979	0.120076	0.076200	0.022552	0.216653	0.098044	-0.093931	0.223541	0.031407	0.015148	0.001450	0.170024	0.078898	0.168888	0.431519	0.057853	0.177316	0.459245	0.026325	0.092462	0.594442	0.283832	0.103549	0.523403	0.311043	0.119535	
363	3.6300	0.000975	0.098569	0.164805	0.018381	-0.119843	0.224659	0.008746	0.003102	-0.004375	0.023438	-0.137344	-0.072731	0.173600	0.042090	0.190698	0.127788	0.093949	0.120572	0.075779	0.022236	0.216713	0.097669	-0.094159	0.223466	0.031441	0.015195	0.001454	0.169619	0.078663	0.169495	0.431041	0.057103	0.179314	0.459154	0.025804	0.094576	0.595509	0.282638	0.107403	0.524625	0.310145	0.123460	
364	3.6400	0.000673	0.098500	0.164831	0.018051	-0.119989	0.224518	0.008752	0.003180	-0.004354	0.023434	-0.137252	-0.072808	0.173112	0.041841	0.191094	0.127546	0.093923	0.120985	0.075365	0.021947	0.216771	0.097293	-0.094373	0.223390	0.031465	0.015253	0.001465	0.169219	0.078460	0.170043	0.430560	0.056394	0.181275	0.459038	0.025224	0.096630	0.596572	0.281439	0.111039	0.525753	0.309210	0.126997	
365	3.6500	0.000408	0.098426	0.164839	0.017757	-0.120132	0.224379	0.008752	0.003229	-0.004316	0.023420	-0.137168	-0.072875	0.172620	0.041633	0.191465	0.127346	0.093883	0.121312	0.074966	0.021683	0.216828	0.096924	-0.094570	0.223323	0.031478	0.015320	0.001482	0.168834	0.078283	0.170518	0.430088	0.055723	0.183180	0.458980	0.024619	0.098631	0.597608	0.280249	0.114398	0.526788	0.308262	0.130185	
366	3.6600	0.000207	0.098329	0.164823	0.017502	-0.120275	0.224241	0.008755	0.003238	-0.004257	0.023399	-0.137096	-0.072931	0.172154	0.041446	0.191842	0.127175	0.093828	0.121608	0.074588	0.021440	0.216884	0.096574	-0.094748	0.223276	0.031480	0.015399	0.001512	0.168462	0.078123	0.170947	0.429627	0.055098	0.185010	0.458970	0.023999	0.100596	0.598545	0.279069	0.117405	0.527749	0.307322	0.133082	
367	3.6700	0.000068	0.098210	0.164793	0.017281	-0.120417	0.224104	0.008768	0.003210	-0.004177	0.023371	-0.137038	-0.072978	0.171736	0.041278	0.192234	0.127017	0.093764	0.121903	0.074233	0.021210	0.216937	0.096254	-0.094910	0.223247	0.031470	0.015488	0.001561	0.168107	0.077981	0.171359	0.429181	0.054528	0.186744	0.458941	0.023346	0.102505	0.599335	0.277904	0.120073	0.528642	0.306402	0.135731	
368	3.6800	-0.000031	0.098087	0.164764	0.017083	-0.120557	0.223969	0.008791	0.003163	-0.004092	0.023343	-0.136992	-0.073018	0.171361	0.041129	0.192623	0.126864	0.093696	0.122193	0.073905	0.020991	0.216986	0.095970	-0.095055	0.223233	0.031455	0.015577	0.001621	0.167777	0.077859	0.171749	0.428752	0.054017	0.188367	0.458839	0.022654	0.104338	0.600000	0.276779	0.122488	0.529454	0.305515	0.138149	
369	3.6900	-0.000125	0.097984	0.164750	0.016900	-0.120693	0.223839	0.008821	0.003121	-0.004022	0.023319	-0.136955	-0.073058	0.171006	0.040999	0.192978	0.126715	0.093624	0.122468	0.073604	0.020780	0.217030	0.095723	-0.095188	0.223231	0.031444	0.015651	0.001674	0.167476	0.077754	0.172098	0.428344	0.053561	0.189863	0.458656	0.021936	0.106048	0.600610	0.275734	0.124723	0.530173	0.304670	0.140348	
370	3.7000	-0.000234	0.097911	0.164753	0.016723	-0.120822	0.223716	0.008859	0.003104	-0.003980	0.023303	-0.136925	-0.073102	0.170648	0.040891	0.193298	0.126574	0.093542	0.122727	0.073332	0.020581	0.217071	0.095511	-0.095310	0.223239	0.031445	0.015699	0.001703	0.167211	0.077658	0.172405	0.427959	0.053151	0.191222	0.458467	0.021230	0.107581	0.601195	0.274793	0.126799	0.530791	0.303881	0.142350	
371	3.7100	-0.000358	0.097856	0.164763	0.016548	-0.120941	0.223605	0.008901	0.003117	-0.003962	0.023298	-0.136898	-0.073154	0.170313	0.040797	0.193602	0.126444	0.093444	0.122970	0.073089	0.020396	0.217111	0.095328	-0.095425	0.223260	0.031459	0.015724	0.001705	0.166984	0.077569	0.172681	0.427605	0.052771	0.192440	0.458331	0.020564	0.108937	0.601719	0.273951	0.128719	0.531305	0.303150	0.144175	
372	3.7200	-0.000485	0.097806	0.164772	0.016374	-0.121049	0.223508	0.008942	0.003150	-0.003958	0.023303	-0.136872	-0.073214	0.170031	0.040699	0.193898	0.126329	0.093327	0.123195	0.072869	0.020227	0.217152	0.095162	-0.095537	0.223300	0.031480	0.015735	0.001691	0.166785	0.077481	0.172934	0.427288	0.052408	0.193519	0.458221	0.019950	0.110147	0.602115	0.273187	0.130478	0.531717	0.302477	0.145845	
373	3.7300	-0.000601	0.097752	0.164774	0.016201	-0.121146	0.223427	0.008973	0.003191	-0.003953	0.023318	-0.136847	-0.073283	0.169804	0.040592	0.194187	0.126233	0.093194	0.123404	0.072669	0.020072	0.217192	0.095002	-0.095648	0.223361	0.031504	0.015738	0.001680	0.166604	0.077383	0.173171	0.427008	0.052046	0.194461	0.458102	0.019403	0.111206	0.602375	0.272490	0.132085	0.532038	0.301855	0.147388	
374	3.7400	-0.000698	0.097691	0.164774	0.016031	-0.121237	0.223356	0.008989	0.003228	-0.003937	0.023343	-0.136819	-0.073358	0.169604	0.040471	0.194462	0.126159	0.093058	0.123601	0.072484	0.019928	0.217232	0.094839	-0.095761	0.223441	0.031529	0.015737	0.001686	0.166437	0.077272	0.173402	0.426758	0.051677	0.195273	0.457984	0.018932	0.112096	0.602560	0.271872	0.133551	0.532287	0.301280	0.148836	
375	3.7500	-0.000777	0.097627	0.164777	0.015862	-0.121325	0.223286	0.008988	0.003255	-0.003906	0.023378	-0.136787	-0.073436	0.169419	0.040348	0.194719	0.126107	0.092938	0.123773	0.072308	0.019789	0.217274	0.094668	-0.095879	0.223527	0.031554	0.015736	0.001710	0.166282	0.077164	0.173629	0.426528	0.051297	0.195961	0.457880	0.018538	0.112822	0.602709	0.271336	0.134878	0.532480	0.300753	0.150203	
376	3.7600	-0.000847	0.097565	0.164792	0.015696	-0.121413	0.223210	0.008977	0.003271	-0.003862	0.023419	-0.136752	-0.073514	0.169239	0.040230	0.194959	0.126065	0.092846	0.123917	0.072138	0.019651	0.217320	0.094489	-0.096000	0.223607	0.031577	0.015739	0.001744	0.166137	0.077066	0.173843	0.426313	0.050906	0.196535	0.457770	0.018224	0.113399	0.602793	0.270877	0.136028	0.532628	0.300284	0.151482	
377	3.7700	-0.000918	0.097510	0.164824	0.015533	-0.121505	0.223125	0.008967	0.003279	-0.003812	0.023465	-0.136715	-0.073588	0.169064	0.040120	0.195170	0.126010	0.092778	0.124048	0.071973	0.019514	0.217370	0.094307	-0.096123	0.223670	0.031598	0.015748	0.001778	0.166008	0.076975	0.174034	0.426114	0.050503	0.197004	0.457624	0.017983	0.113835	0.602778	0.270493	0.136987	0.532722	0.299880	0.152641	
378	3.7800	-0.000992	0.097461	0.164869	0.015378	-0.121600	0.223032	0.008965	0.003284	-0.003763	0.023512	-0.136678	-0.073655	0.168912	0.040016	0.195343	0.125943	0.092731	0.124169	0.071821	0.019381	0.217422	0.094133	-0.096244	0.223715	0.031616	0.015764	0.001807	0.165898	0.076884	0.174200	0.425939	0.050092	0.197378	0.457438	0.017798	0.114146	0.602678	0.270187	0.137784	0.532737	0.299538	0.153638	
379	3.7900	-0.001062	0.097412	0.164912	0.015233	-0.121696	0.222939	0.008967	0.003294	-0.003725	0.023553	-0.136646	-0.073713	0.168792	0.039919	0.195485	0.125875	0.092692	0.124286	0.071687	0.019256	0.217473	0.093974	-0.096360	0.223744	0.031634	0.015781	0.001830	0.165803	0.076791	0.174347	0.425795	0.049684	0.197669	0.457251	0.017648	0.114358	0.602534	0.269957	0.138466	0.532671	0.299248	0.154459	
380	3.8000	-0.001125	0.097357	0.164939	0.015103	-0.121791	0.222851	0.008967	0.003314	-0.003699	0.023585	-0.136619	-0.073762	0.168692	0.039826	0.195607	0.125814	0.092637	0.124403	0.071570	0.019142	0.217521	0.093834	-0.096469	0.223758	0.031651	0.015796	0.001850	0.165723	0.076694	0.174483	0.425684	0.049296	0.197886	0.457111	0.017522	0.114491	0.602374	0.269795	0.139057	0.532540	0.299008	0.155122	
381	3.8100	-0.001180	0.097296	0.164952	0.014991	-0.121882	0.222771	0.008960	0.003340	-0.003687	0.023604	-0.136600	-0.073805	0.168609	0.039726	0.195707	0.125758	0.092565	0.124518	0.071466	0.019039	0.217564	0.093714	-0.096570	0.223756	0.031667	0.015806	0.001870	0.165653	0.076587	0.174610	0.425604	0.048953	0.198036	0.457033	0.017427	0.114556	0.602203	0.269684	0.139547	0.532365	0.298819	0.155654	
382	3.8200	-0.001227	0.097230	0.164962	0.014896	-0.121968	0.222699	0.008947	0.003367	-0.003686	0.023608	-0.136587	-0.073845	0.168543	0.039610	0.195781	0.125692	0.092492	0.124627	0.071371	0.018942	0.217601	0.093610	-0.096666	0.223731	0.031680	0.015810	0.001887	0.165586	0.076467	0.174725	0.425544	0.048671	0.198127	0.456998	0.017372	0.114570	0.602022	0.269614	0.139919	0.532163	0.298682	0.156073	
383	3.8300	-0.001275	0.097167	0.164977	0.014815	-0.122048	0.222634	0.008932	0.003389	-0.003691	0.023597	-0.136578	-0.073887	0.168476	0.039485	0.195830	0.125614	0.092441	0.124728	0.071283	0.018846	0.217628	0.093512	-0.096757	0.223673	0.031684	0.015810	0.001896	0.165510	0.076346	0.174829	0.425494	0.048458	0.198165	0.456982	0.017362	0.114542	0.601836	0.269581	0.140155	0.531949	0.298593	0.156388	
384	3.8400	-0.001330	0.097115	0.164996	0.014747	-0.122119	0.222571	0.008918	0.003402	-0.003697	0.023573	-0.136572	-0.073932	0.168400	0.039366	0.195861	0.125527	0.092415	0.124822	0.071204	0.018750	0.217645	0.093411	-0.096844	0.223572	0.031679	0.015810	0.001889	0.165431	0.076236	0.174914	0.425444	0.048313	0.198154	0.456967	0.017386	0.114472	0.601650	0.269589	0.140253	0.531741	0.298546	0.156600	
385	3.8500	-0.001388	0.097070	0.165015	0.014688	-0.122181	0.222507	0.008909	0.003405	-0.003703	0.023539	-0.136567	-0.073983	0.168335	0.039262	0.195870	0.125434	0.092403	0.124905	0.071136	0.018655	0.217651	0.093301	-0.096931	0.223418	0.031663	0.015810	0.001867	0.165356	0.076144	0.174974	0.425393	0.048229	0.198100	0.456943	0.017429	0.114358	0.601472	0.269637	0.140219	0.531556	0.298537	0.156705	
